<?xml version="1.0" encoding="UTF-8" standalone="no"?>
<!DOCTYPE svg PUBLIC "-//W3C//DTD SVG 1.1//EN"
 "http://www.w3.org/Graphics/SVG/1.1/DTD/svg11.dtd">
<!-- Generated by graphviz version 5.0.0 (20220707.1540)
 -->
<!-- Title: dependencies Pages: 1 -->
<svg width="365pt" height="174pt"
 viewBox="0.00 0.00 365.00 173.80" xmlns="http://www.w3.org/2000/svg" xmlns:xlink="http://www.w3.org/1999/xlink">
<g id="graph0" class="graph" transform="scale(1 1) rotate(0) translate(4 169.8)">
<title>dependencies</title>
<polygon fill="white" stroke="transparent" points="-4,4 -4,-169.8 361,-169.8 361,4 -4,4"/>
<text text-anchor="middle" x="178.5" y="-8.2" font-family="sans-serif" font-size="14.00">dependencies</text>
<g id="clust1" class="cluster">
<title>cluster_AppModule</title>
<polygon fill="none" stroke="black" stroke-dasharray="1,5" points="8,-32.8 8,-157.8 349,-157.8 349,-32.8 8,-32.8"/>
</g>
<g id="clust3" class="cluster">
<title>cluster_AppModule_imports</title>
<polygon fill="none" stroke="black" points="16,-40.8 16,-92.8 341,-92.8 341,-40.8 16,-40.8"/>
</g>
<!-- CoreModule -->
<g id="node1" class="node">
<title>CoreModule</title>
<polygon fill="#8dd3c7" stroke="black" points="333.27,-84.8 330.27,-88.8 309.27,-88.8 306.27,-84.8 246.73,-84.8 246.73,-48.8 333.27,-48.8 333.27,-84.8"/>
<text text-anchor="middle" x="290" y="-62.6" font-family="Times,serif" font-size="14.00">CoreModule</text>
</g>
<!-- AppModule -->
<g id="node4" class="node">
<title>AppModule</title>
<polygon fill="#8dd3c7" stroke="black" points="222.66,-149.8 219.66,-153.8 198.66,-153.8 195.66,-149.8 139.34,-149.8 139.34,-113.8 222.66,-113.8 222.66,-149.8"/>
<text text-anchor="middle" x="181" y="-127.6" font-family="Times,serif" font-size="14.00">AppModule</text>
</g>
<!-- CoreModule&#45;&gt;AppModule -->
<g id="edge1" class="edge">
<title>CoreModule&#45;&gt;AppModule</title>
<path fill="none" stroke="black" d="M290,-84.91C290,-104.14 290,-131.8 290,-131.8 290,-131.8 232.83,-131.8 232.83,-131.8"/>
<polygon fill="black" stroke="black" points="232.83,-128.3 222.83,-131.8 232.83,-135.3 232.83,-128.3"/>
</g>
<!-- TweetModule -->
<g id="node2" class="node">
<title>TweetModule</title>
<polygon fill="#8dd3c7" stroke="black" points="228.03,-84.8 225.03,-88.8 204.03,-88.8 201.03,-84.8 133.97,-84.8 133.97,-48.8 228.03,-48.8 228.03,-84.8"/>
<text text-anchor="middle" x="181" y="-62.6" font-family="Times,serif" font-size="14.00">TweetModule</text>
</g>
<!-- TweetModule&#45;&gt;AppModule -->
<g id="edge2" class="edge">
<title>TweetModule&#45;&gt;AppModule</title>
<path fill="none" stroke="black" d="M181,-84.91C181,-84.91 181,-103.79 181,-103.79"/>
<polygon fill="black" stroke="black" points="177.5,-103.79 181,-113.79 184.5,-103.79 177.5,-103.79"/>
</g>
<!-- UsersModule -->
<g id="node3" class="node">
<title>UsersModule</title>
<polygon fill="#8dd3c7" stroke="black" points="115.94,-84.8 112.94,-88.8 91.94,-88.8 88.94,-84.8 24.06,-84.8 24.06,-48.8 115.94,-48.8 115.94,-84.8"/>
<text text-anchor="middle" x="70" y="-62.6" font-family="Times,serif" font-size="14.00">UsersModule</text>
</g>
<!-- UsersModule&#45;&gt;AppModule -->
<g id="edge3" class="edge">
<title>UsersModule&#45;&gt;AppModule</title>
<path fill="none" stroke="black" d="M70,-84.91C70,-104.14 70,-131.8 70,-131.8 70,-131.8 129.04,-131.8 129.04,-131.8"/>
<polygon fill="black" stroke="black" points="129.04,-135.3 139.04,-131.8 129.04,-128.3 129.04,-135.3"/>
</g>
</g>
</svg>
