<?xml version="1.0" encoding="UTF-8" standalone="no"?>
<!DOCTYPE svg PUBLIC "-//W3C//DTD SVG 1.1//EN"
 "http://www.w3.org/Graphics/SVG/1.1/DTD/svg11.dtd">
<!-- Generated by graphviz version 5.0.0 (20220707.1540)
 -->
<!-- Title: dependencies Pages: 1 -->
<svg width="253pt" height="247pt"
 viewBox="0.00 0.00 253.00 246.80" xmlns="http://www.w3.org/2000/svg" xmlns:xlink="http://www.w3.org/1999/xlink">
<g id="graph0" class="graph" transform="scale(1 1) rotate(0) translate(4 242.8)">
<title>dependencies</title>
<polygon fill="white" stroke="transparent" points="-4,4 -4,-242.8 249,-242.8 249,4 -4,4"/>
<text text-anchor="middle" x="122.5" y="-8.2" font-family="sans-serif" font-size="14.00">dependencies</text>
<g id="clust1" class="cluster">
<title>cluster_CoreModule</title>
<polygon fill="none" stroke="black" stroke-dasharray="1,5" points="8,-32.8 8,-230.8 237,-230.8 237,-32.8 8,-32.8"/>
</g>
<g id="clust4" class="cluster">
<title>cluster_CoreModule_exports</title>
<polygon fill="none" stroke="black" points="68,-170.8 68,-222.8 176,-222.8 176,-170.8 68,-170.8"/>
</g>
<g id="clust3" class="cluster">
<title>cluster_CoreModule_imports</title>
<polygon fill="none" stroke="black" points="16,-40.8 16,-92.8 229,-92.8 229,-40.8 16,-40.8"/>
</g>
<!-- AuthModule -->
<g id="node1" class="node">
<title>AuthModule</title>
<polygon fill="#8dd3c7" stroke="black" points="220.55,-84.8 217.55,-88.8 196.55,-88.8 193.55,-84.8 133.45,-84.8 133.45,-48.8 220.55,-48.8 220.55,-84.8"/>
<text text-anchor="middle" x="177" y="-62.6" font-family="Times,serif" font-size="14.00">AuthModule</text>
</g>
<!-- CoreModule -->
<g id="node3" class="node">
<title>CoreModule</title>
<polygon fill="#8dd3c7" stroke="black" points="165.27,-149.8 162.27,-153.8 141.27,-153.8 138.27,-149.8 78.73,-149.8 78.73,-113.8 165.27,-113.8 165.27,-149.8"/>
<text text-anchor="middle" x="122" y="-127.6" font-family="Times,serif" font-size="14.00">CoreModule</text>
</g>
<!-- AuthModule&#45;&gt;CoreModule -->
<g id="edge1" class="edge">
<title>AuthModule&#45;&gt;CoreModule</title>
<path fill="none" stroke="black" d="M149.3,-84.91C149.3,-84.91 149.3,-103.79 149.3,-103.79"/>
<polygon fill="black" stroke="black" points="145.8,-103.79 149.3,-113.79 152.8,-103.79 145.8,-103.79"/>
</g>
<!-- UsersModule -->
<g id="node2" class="node">
<title>UsersModule</title>
<polygon fill="#8dd3c7" stroke="black" points="115.94,-84.8 112.94,-88.8 91.94,-88.8 88.94,-84.8 24.06,-84.8 24.06,-48.8 115.94,-48.8 115.94,-84.8"/>
<text text-anchor="middle" x="70" y="-62.6" font-family="Times,serif" font-size="14.00">UsersModule</text>
</g>
<!-- UsersModule&#45;&gt;CoreModule -->
<g id="edge2" class="edge">
<title>UsersModule&#45;&gt;CoreModule</title>
<path fill="none" stroke="black" d="M97.17,-84.91C97.17,-84.91 97.17,-103.79 97.17,-103.79"/>
<polygon fill="black" stroke="black" points="93.67,-103.79 97.17,-113.79 100.67,-103.79 93.67,-103.79"/>
</g>
<!-- AuthModule  -->
<g id="node4" class="node">
<title>AuthModule </title>
<polygon fill="#fb8072" stroke="black" points="167.55,-214.8 76.45,-214.8 76.45,-178.8 167.55,-178.8 167.55,-214.8"/>
<text text-anchor="middle" x="122" y="-192.6" font-family="Times,serif" font-size="14.00">AuthModule </text>
</g>
<!-- CoreModule&#45;&gt;AuthModule  -->
<g id="edge3" class="edge">
<title>CoreModule&#45;&gt;AuthModule </title>
<path fill="none" stroke="black" stroke-dasharray="5,2" d="M122,-149.91C122,-149.91 122,-168.79 122,-168.79"/>
<polygon fill="black" stroke="black" points="118.5,-168.79 122,-178.79 125.5,-168.79 118.5,-168.79"/>
</g>
</g>
</svg>
